HIERARCHY
ROOT Hips
{
	OFFSET 0.00 0.00 0.00
	CHANNELS 6 Xposition Yposition Zposition Xrotation Yrotation Zrotation
	JOINT Spine
	{
		OFFSET 0.00000 5.19526 0.00000
		CHANNELS 3 Xrotation Yrotation Zrotation
		JOINT Head
		{
			OFFSET 0.00000 15.65388 0.00000
			CHANNELS 3 Xrotation Yrotation Zrotation
			End Site
			{
				OFFSET 0.00000 4.52755 0.00000
			}
		}
		JOINT LeftShoulder
		{
			OFFSET 0.00000 10.32977 0.00000
			CHANNELS 3 Xrotation Yrotation Zrotation
			JOINT LeftArm
			{
				OFFSET 6.99601 0.00000 0.00000
				CHANNELS 3 Xrotation Yrotation Zrotation
				JOINT LeftForeArm
				{
					OFFSET 10.20930 0.00000 0.00000
					CHANNELS 3 Yrotation Zrotation Xrotation
					JOINT LeftHand
					{
						OFFSET 8.56316 0.00000 0.00000
						CHANNELS 3 Xrotation Yrotation Zrotation
						JOINT LeftHandThumb1
						{
							OFFSET 0.00000 0.00000 0.00000
							CHANNELS 3 Xrotation Zrotation Yrotation
							End Site
							{
								OFFSET 0.00000 0.00000 3.93700
							}
						}
						End Site
						{
							OFFSET 3.93700 0.00000 0.00000
						}
					}
				}
			}
		}
		JOINT RightShoulder
		{
			OFFSET 0.00000 10.32977 0.00000
			CHANNELS 3 Xrotation Yrotation Zrotation
			JOINT RightArm
			{
				OFFSET -6.99601 0.00000 0.00000
				CHANNELS 3 Xrotation Yrotation Zrotation
				JOINT RightForeArm
				{
					OFFSET -10.20930 0.00000 0.00000
					CHANNELS 3 Yrotation Zrotation Xrotation
					JOINT RightHand
					{
						OFFSET -8.56316 0.00000 0.00000
						CHANNELS 3 Xrotation Yrotation Zrotation
						JOINT RightHandThumb1
						{
							OFFSET 0.00000 0.00000 0.00000
							CHANNELS 3 Xrotation Zrotation Yrotation
							End Site
							{
								OFFSET 0.00000 0.00000 3.93700
							}
						}
						End Site
						{
							OFFSET -3.93700 0.00000 0.00000
						}
					}
				}
			}
		}
	}
	JOINT LeftUpLeg
	{
		OFFSET 3.35136 0.00000 0.00000
		CHANNELS 3 Xrotation Yrotation Zrotation
		JOINT LeftLeg
		{
			OFFSET 0.00000 -16.34683 0.00000
			CHANNELS 3 Xrotation Yrotation Zrotation
			JOINT LeftFoot
			{
				OFFSET 0.00000 -13.95979 0.00000
				CHANNELS 3 Xrotation Yrotation Zrotation
				JOINT LeftToeBase
				{
					OFFSET 0.00000 -1.33694 4.98954
					CHANNELS 3 Xrotation Yrotation Zrotation
					End Site
					{
						OFFSET 0.00000 0.00000 2.95275
					}
				}
			}
		}
	}
	JOINT RightUpLeg
	{
		OFFSET -3.35136 0.00000 0.00000
		CHANNELS 3 Xrotation Yrotation Zrotation
		JOINT RightLeg
		{
			OFFSET 0.00000 -16.34683 0.00000
			CHANNELS 3 Xrotation Yrotation Zrotation
			JOINT RightFoot
			{
				OFFSET 0.00000 -13.95979 0.00000
				CHANNELS 3 Xrotation Yrotation Zrotation
				JOINT RightToeBase
				{
					OFFSET 0.00000 -1.33694 4.98954
					CHANNELS 3 Xrotation Yrotation Zrotation
					End Site
					{
						OFFSET 0.00000 0.00000 2.95275
					}
				}
			}
		}
	}
}
MOTION
Frames:	20
Frame Time: 0.008333
1.2875 31.7866 -6.5080 5.7353 -6.4017 -2.6630 -8.8104 7.3196 2.9610 16.3239 38.4314 -6.6206 -15.5131 -0.4575 10.3931 -38.3533 55.0738 -54.8056 -110.9006 0.0000 -32.8623 -2.2935 10.1451 12.8101 32.8623 0.0000 24.3270 17.3274 -13.5056 -3.7473 -15.1273 44.7946 83.9462 15.7140 -0.0000 -2.8134 0.9026 -10.5789 4.9048 33.1476 -0.0000 -26.2537 0.6765 4.0849 4.0351 -3.2783 0.0000 -0.0000 -14.3073 16.0830 -1.9464 5.1261 -0.0000 -0.0000 -1.8710 0.6223 1.4410 1.7816 -0.0000 -0.0000 -12.4909 -27.0660 12.8044 8.7186 -0.0000 -0.0000
1.2866 31.7868 -6.5050 5.7322 -6.3855 -2.6675 -8.8314 7.3608 2.9661 16.4502 38.4256 -6.6961 -15.5522 -0.4493 10.4485 -38.4547 55.1008 -54.6391 -110.9693 0.0000 -32.7842 -2.3641 10.3560 12.9344 32.8623 0.0000 24.3270 17.3154 -13.5193 -3.7213 -15.1060 44.8168 83.8654 15.7687 0.0000 -2.7187 0.8954 -10.4902 4.9062 33.1476 -0.0000 -26.2537 0.6770 4.0960 4.0379 -3.2696 0.0000 -0.0000 -14.3007 16.0651 -1.9619 5.0668 -0.0000 -0.0000 -1.8604 0.6225 1.4454 1.7839 -0.0000 -0.0000 -12.4956 -27.0848 12.8231 8.7079 -0.0000 -0.0000
1.2863 31.7867 -6.5024 5.7286 -6.3821 -2.6647 -8.8528 7.3948 2.9750 16.6143 38.4532 -6.8166 -15.5366 -0.4145 10.4855 -38.6353 55.1182 -54.4185 -110.9933 0.0000 -32.9191 -2.3241 10.3868 12.6861 32.8623 0.0000 24.3270 17.3012 -13.5224 -3.7186 -15.1034 44.8377 83.8193 15.8069 0.0000 -2.6949 0.8764 -10.4125 4.8378 33.1476 -0.0000 -26.2537 0.6865 4.1014 4.0333 -3.2755 0.0000 -0.0000 -14.2936 16.0627 -1.9570 5.1153 -0.0000 -0.0000 -1.8467 0.6220 1.4428 1.7755 -0.0000 -0.0000 -12.4996 -27.0914 12.8154 8.6802 -0.0000 -0.0000
1.2861 31.7863 -6.4997 5.7270 -6.3833 -2.6619 -8.8740 7.4311 2.9828 16.7603 38.4813 -6.9171 -15.5333 -0.3819 10.5367 -38.7133 55.0586 -54.2495 -110.9994 0.0000 -32.9447 -2.3034 10.3320 12.6405 32.8623 0.0000 24.3270 17.2944 -13.5283 -3.7104 -15.0966 44.8622 83.7625 15.8852 0.0000 -2.6573 0.8726 -10.5116 4.7723 33.1476 -0.0000 -26.2537 0.6864 4.1123 4.0292 -3.2604 0.0000 -0.0000 -14.3154 16.0553 -1.9493 5.0540 -0.0000 -0.0000 -1.8371 0.6105 1.4393 1.7689 -0.0000 -0.0000 -12.5059 -27.0881 12.8470 8.7088 -0.0000 -0.0000
1.2865 31.7862 -6.4980 5.7289 -6.4053 -2.6575 -8.8960 7.4795 2.9951 16.9107 38.5390 -7.0335 -15.5095 -0.3428 10.5826 -38.7543 54.9371 -54.0898 -111.0133 0.0000 -32.8229 -2.3255 10.3794 12.7025 32.8623 0.0000 24.3270 17.2851 -13.5314 -3.6999 -15.0942 44.8847 83.7079 15.9394 -0.0000 -2.5741 0.9424 -10.4821 5.1663 33.1476 -0.0000 -26.2537 0.6908 4.1046 4.0244 -3.2584 0.0000 -0.0000 -14.3169 16.0832 -1.9329 5.0669 -0.0000 -0.0000 -1.8347 0.6069 1.4356 1.7610 -0.0000 -0.0000 -12.5043 -27.0569 12.8100 8.6990 -0.0000 -0.0000
1.2862 31.7861 -6.4957 5.7280 -6.4296 -2.6547 -8.9157 7.5343 3.0149 17.0608 38.5784 -7.1590 -15.4823 -0.3109 10.6318 -38.7007 54.7548 -53.9607 -111.0090 0.0000 -32.7825 -2.3154 10.3104 12.7300 32.8623 0.0000 24.3270 17.2654 -13.5446 -3.6942 -15.0977 44.9536 83.6642 15.9825 0.0000 -2.6102 0.9493 -10.4968 5.1968 33.1476 -0.0000 -26.2537 0.6932 4.1343 4.0204 -3.2495 0.0000 -0.0000 -14.3321 16.0808 -1.9215 5.0677 -0.0000 -0.0000 -1.8278 0.6108 1.4326 1.7485 -0.0000 -0.0000 -12.4914 -27.0495 12.8520 8.7249 -0.0000 -0.0000
1.2860 31.7860 -6.4934 5.7286 -6.4613 -2.6506 -8.9305 7.5745 3.0437 17.2227 38.6369 -7.3269 -15.4953 -0.2933 10.6585 -38.6522 54.5559 -53.7185 -111.0212 -0.0000 -32.6750 -2.3377 10.4633 12.6690 32.8623 0.0000 24.3270 17.2744 -13.5567 -3.6911 -15.1524 44.9823 83.6362 16.0319 0.0000 -2.6446 0.8661 -10.5268 4.7303 33.1476 -0.0000 -26.2537 0.7015 4.1224 4.0184 -3.2476 0.0000 -0.0000 -14.3370 16.1107 -1.9255 5.0390 -0.0000 -0.0000 -1.8229 0.6111 1.4305 1.7374 -0.0000 -0.0000 -12.4903 -27.0244 12.8455 8.7202 -0.0000 -0.0000
1.2852 31.7859 -6.4906 5.7233 -6.4961 -2.6496 -8.9405 7.6124 3.0670 17.3670 38.7185 -7.4614 -15.3818 -0.2294 10.7179 -38.6633 54.3552 -53.5710 -110.9952 0.0000 -32.6810 -2.3034 10.4630 12.4891 32.8623 0.0000 24.3270 17.2673 -13.5647 -3.6841 -15.1852 44.9959 83.6103 16.0792 0.0000 -2.6098 0.8623 -10.5590 4.6953 33.1476 -0.0000 -26.2537 0.7139 4.1032 4.0187 -3.2377 0.0000 -0.0000 -14.3568 16.1621 -1.9032 5.1195 -0.0000 -0.0000 -1.8064 0.6270 1.4308 1.7100 -0.0000 -0.0000 -12.4751 -27.0062 12.8392 8.7158 -0.0000 -0.0000
1.2848 31.7858 -6.4891 5.7220 -6.5443 -2.6495 -8.9531 7.6750 3.0955 17.5091 38.7985 -7.5927 -15.3296 -0.1982 10.7662 -38.5354 54.0609 -53.3852 -110.9681 0.0000 -32.6424 -2.2905 10.4346 12.4534 32.8623 0.0000 24.3270 17.2832 -13.5840 -3.6664 -15.2305 45.0152 83.5808 16.1231 0.0000 -2.6474 0.8397 -10.4992 4.5984 33.1476 -0.0000 -26.2537 0.7133 4.1208 4.0214 -3.2158 0.0000 -0.0000 -14.3461 16.2014 -2.0139 4.9659 -0.0000 -0.0000 -1.8088 0.6197 1.4323 1.7091 -0.0000 -0.0000 -12.4656 -26.9566 12.8384 8.6963 -0.0000 -0.0000
1.2857 31.7860 -6.4874 5.7196 -6.5908 -2.6395 -8.9530 7.7144 3.1096 17.6194 38.9189 -7.7087 -15.0593 -0.0973 10.8388 -38.5972 53.7647 -53.2525 -110.9487 -0.0000 -32.3500 -2.2981 10.5208 12.3955 32.8623 0.0000 24.3270 17.2756 -13.5872 -3.6451 -15.2458 45.0099 83.5334 16.1855 0.0000 -2.6265 0.8314 -10.4665 4.5673 33.1476 -0.0000 -26.2537 0.7222 4.0861 4.0095 -3.1993 0.0000 -0.0000 -14.3953 16.2597 -1.8902 5.0641 -0.0000 -0.0000 -1.8035 0.6097 1.4210 1.6947 -0.0000 -0.0000 -12.4557 -26.9095 12.8659 8.7427 -0.0000 -0.0000
1.2883 31.7857 -6.4848 5.7137 -6.6528 -2.6222 -8.9557 7.7615 3.1377 17.7899 39.0375 -7.8911 -14.9289 -0.0300 10.8745 -38.5225 53.4569 -53.0463 -110.9116 0.0000 -32.2109 -2.2523 10.4742 12.2073 32.8623 0.0000 24.3270 17.2784 -13.5870 -3.6497 -15.2810 45.0006 83.5137 16.2584 0.0000 -2.5709 0.8133 -10.4936 4.4568 33.1476 -0.0000 -26.2537 0.7310 4.1076 3.9873 -3.1772 0.0000 -0.0000 -14.4185 16.3010 -1.8844 5.0867 -0.0000 -0.0000 -1.8007 0.6118 1.3978 1.6938 -0.0000 -0.0000 -12.4407 -26.8584 12.9102 8.7011 -0.0000 -0.0000
1.2883 31.7856 -6.4830 5.7056 -6.7177 -2.6150 -8.9521 7.8209 3.1681 17.9314 39.1385 -8.0529 -14.8174 0.0163 10.9032 -38.4602 53.1395 -52.8075 -110.8800 0.0000 -31.9374 -2.2347 10.5426 12.0396 32.8623 0.0000 24.3270 17.2715 -13.5971 -3.6447 -15.3213 44.9753 83.5026 16.3094 -0.0000 -2.5420 0.8308 -10.5269 4.5380 33.1476 -0.0000 -26.2537 0.7413 4.1212 3.9825 -3.1550 0.0000 -0.0000 -14.4391 16.3327 -1.8708 5.1268 -0.0000 -0.0000 -1.7969 0.6333 1.3911 1.6900 -0.0000 -0.0000 -12.4420 -26.8133 12.8991 8.7198 -0.0000 -0.0000
1.2887 31.7858 -6.4825 5.7071 -6.7846 -2.6060 -8.9507 7.8548 3.1954 18.0596 39.2552 -8.2128 -14.7175 0.0788 10.9321 -38.3576 52.8050 -52.5793 -110.8605 0.0000 -31.5135 -2.2320 10.6074 11.9548 32.8623 0.0000 24.3270 17.2556 -13.5834 -3.6431 -15.3450 44.9761 83.4859 16.3642 -0.0000 -2.5067 0.8418 -10.5488 4.5889 33.1476 -0.0000 -26.2537 0.7459 4.1113 3.9749 -3.1432 0.0000 -0.0000 -14.4510 16.4080 -1.8822 5.1870 -0.0000 -0.0000 -1.8052 0.6471 1.3826 1.6846 -0.0000 -0.0000 -12.4308 -26.7726 12.9261 8.7232 -0.0000 -0.0000
1.2896 31.7859 -6.4819 5.7056 -6.8572 -2.5991 -8.9467 7.9255 3.2333 18.1922 39.3342 -8.3802 -14.5714 0.1269 10.9730 -38.3466 52.5609 -52.3265 -110.7963 0.0000 -31.5385 -2.1543 10.6199 11.5367 32.8623 0.0000 24.3270 17.2468 -13.6054 -3.6370 -15.3806 44.9908 83.4775 16.4189 -0.0000 -2.5303 0.8367 -10.5567 4.5578 33.1476 -0.0000 -26.2537 0.7562 4.1141 3.9682 -3.1374 0.0000 -0.0000 -14.4664 16.4576 -1.8558 5.1145 -0.0000 -0.0000 -1.8099 0.6690 1.3755 1.6762 -0.0000 -0.0000 -12.4109 -26.7200 12.8921 8.6983 -0.0000 -0.0000
1.2900 31.7858 -6.4814 5.7015 -6.9284 -2.5933 -8.9358 7.9584 3.2690 18.3210 39.4270 -8.5496 -14.4357 0.2103 11.0097 -38.3150 52.2974 -52.1136 -110.7577 0.0000 -31.2434 -2.1217 10.7874 11.1966 32.8623 0.0000 24.3270 17.2329 -13.5918 -3.6371 -15.4074 45.0001 83.4678 16.4789 0.0000 -2.5435 0.8165 -10.5054 4.4695 33.1476 -0.0000 -26.2537 0.7654 4.1170 3.9653 -3.1211 0.0000 -0.0000 -14.4903 16.5068 -1.8337 5.0698 -0.0000 -0.0000 -1.8180 0.6839 1.3703 1.6828 -0.0000 -0.0000 -12.4002 -26.6747 12.9377 8.7402 -0.0000 -0.0000
1.2910 31.7855 -6.4812 5.6991 -6.9984 -2.5830 -8.9273 7.9963 3.3004 18.4417 39.4908 -8.7043 -14.3362 0.2621 11.0358 -38.2190 52.0250 -51.9088 -110.7358 0.0000 -31.0303 -2.1136 10.8484 11.0940 32.8623 0.0000 24.3270 17.2181 -13.5802 -3.6384 -15.4204 45.0154 83.4561 16.5486 0.0000 -2.5343 0.7947 -10.4788 4.3617 33.1476 -0.0000 -26.2537 0.7697 4.1275 3.9530 -3.1054 0.0000 -0.0000 -14.5024 16.5611 -1.8248 5.0478 -0.0000 -0.0000 -1.8256 0.6974 1.3607 1.6866 -0.0000 -0.0000 -12.4026 -26.6241 12.9417 8.7053 -0.0000 -0.0000
1.2919 31.7855 -6.4814 5.6973 -7.0699 -2.5773 -8.9226 8.0514 3.3316 18.5535 39.5300 -8.8288 -14.1679 0.3603 11.0745 -38.1277 51.7050 -51.8136 -110.6695 -0.0000 -30.8265 -2.0793 10.8160 10.9501 32.8623 0.0000 24.3270 17.1999 -13.5751 -3.6328 -15.4232 45.0461 83.4395 16.6005 0.0000 -2.5783 0.7921 -10.4552 4.3569 33.1476 -0.0000 -26.2537 0.7805 4.1399 3.9470 -3.1065 0.0000 -0.0000 -14.5144 16.6098 -1.8121 5.1661 -0.0000 -0.0000 -1.8390 0.7167 1.3528 1.6930 -0.0000 -0.0000 -12.3855 -26.5894 13.0295 8.7345 -0.0000 -0.0000
1.2925 31.7851 -6.4812 5.6926 -7.1343 -2.5768 -8.9089 8.0888 3.3803 18.6782 39.5604 -9.0021 -14.0685 0.4093 11.0905 -38.0531 51.4897 -51.6348 -110.6121 0.0000 -30.6312 -2.0239 10.7897 10.6899 32.8623 0.0000 24.3270 17.1843 -13.5698 -3.6458 -15.4381 45.0561 83.4450 16.6670 -0.0000 -2.5517 0.8027 -10.5213 4.3878 33.1476 -0.0000 -26.2537 0.7968 4.1300 3.9456 -3.1076 0.0000 -0.0000 -14.5361 16.6721 -1.7938 5.1239 -0.0000 -0.0000 -1.8420 0.7410 1.3524 1.6892 -0.0000 -0.0000 -12.3723 -26.5496 13.0410 8.7238 -0.0000 -0.0000
1.2934 31.7854 -6.4811 5.6902 -7.1912 -2.5676 -8.9005 8.1212 3.4099 18.7848 39.5707 -9.1258 -13.9067 0.4682 11.1331 -37.9554 51.2712 -51.5226 -110.5706 0.0000 -30.5784 -2.0050 10.7811 10.6003 32.8623 0.0000 24.3270 17.1624 -13.5564 -3.6497 -15.4271 45.0940 83.4384 16.7397 0.0000 -2.5694 0.7993 -10.5648 4.3516 33.1476 -0.0000 -26.2537 0.7915 4.1941 3.9340 -3.0807 0.0000 -0.0000 -14.5468 16.6623 -1.7773 5.1218 -0.0000 -0.0000 -1.8482 0.7520 1.3460 1.6971 -0.0000 -0.0000 -12.3630 -26.5280 13.0745 8.7066 -0.0000 -0.0000
1.2943 31.7854 -6.4820 5.6867 -7.2438 -2.5652 -8.8906 8.1583 3.4380 18.8618 39.5620 -9.2041 -13.8692 0.4990 11.1531 -37.8104 51.0931 -51.4258 -110.5337 0.0000 -30.4368 -1.9642 10.7489 10.4191 32.8623 0.0000 24.3270 17.1540 -13.5444 -3.6472 -15.4294 45.1156 83.4357 16.7986 0.0000 -2.5746 0.7997 -10.5369 4.3652 33.1476 -0.0000 -26.2537 0.8025 4.1999 3.9294 -3.0867 0.0000 -0.0000 -14.5511 16.7163 -1.7820 5.1244 -0.0000 -0.0000 -1.8543 0.7654 1.3402 1.6927 -0.0000 -0.0000 -12.3515 -26.4649 13.0246 8.6929 -0.0000 -0.0000
